%TF.GenerationSoftware,KiCad,Pcbnew,9.0.2*%
%TF.CreationDate,2025-06-30T19:38:48+03:00*%
%TF.ProjectId,pathfinder,70617468-6669-46e6-9465-722e6b696361,rev?*%
%TF.SameCoordinates,Original*%
%TF.FileFunction,Copper,L1,Top*%
%TF.FilePolarity,Positive*%
%FSLAX46Y46*%
G04 Gerber Fmt 4.6, Leading zero omitted, Abs format (unit mm)*
G04 Created by KiCad (PCBNEW 9.0.2) date 2025-06-30 19:38:48*
%MOMM*%
%LPD*%
G01*
G04 APERTURE LIST*
G04 Aperture macros list*
%AMRoundRect*
0 Rectangle with rounded corners*
0 $1 Rounding radius*
0 $2 $3 $4 $5 $6 $7 $8 $9 X,Y pos of 4 corners*
0 Add a 4 corners polygon primitive as box body*
4,1,4,$2,$3,$4,$5,$6,$7,$8,$9,$2,$3,0*
0 Add four circle primitives for the rounded corners*
1,1,$1+$1,$2,$3*
1,1,$1+$1,$4,$5*
1,1,$1+$1,$6,$7*
1,1,$1+$1,$8,$9*
0 Add four rect primitives between the rounded corners*
20,1,$1+$1,$2,$3,$4,$5,0*
20,1,$1+$1,$4,$5,$6,$7,0*
20,1,$1+$1,$6,$7,$8,$9,0*
20,1,$1+$1,$8,$9,$2,$3,0*%
G04 Aperture macros list end*
%TA.AperFunction,ComponentPad*%
%ADD10C,2.200000*%
%TD*%
%TA.AperFunction,SMDPad,CuDef*%
%ADD11RoundRect,0.152400X-1.063600X-0.609600X1.063600X-0.609600X1.063600X0.609600X-1.063600X0.609600X0*%
%TD*%
%TA.AperFunction,ComponentPad*%
%ADD12C,1.524000*%
%TD*%
%TA.AperFunction,SMDPad,CuDef*%
%ADD13RoundRect,0.152400X1.063600X0.609600X-1.063600X0.609600X-1.063600X-0.609600X1.063600X-0.609600X0*%
%TD*%
%TA.AperFunction,ComponentPad*%
%ADD14C,1.815000*%
%TD*%
%TA.AperFunction,ComponentPad*%
%ADD15R,1.815000X1.815000*%
%TD*%
%TA.AperFunction,ComponentPad*%
%ADD16C,1.400000*%
%TD*%
%TA.AperFunction,Conductor*%
%ADD17C,0.200000*%
%TD*%
G04 APERTURE END LIST*
D10*
%TO.P,SW2,2,2*%
%TO.N,GND*%
X166370000Y-109760000D03*
%TO.P,SW2,1,1*%
%TO.N,btn2*%
X172720000Y-107220000D03*
%TD*%
%TO.P,SW1,2,2*%
%TO.N,GND*%
X142600000Y-109800000D03*
%TO.P,SW1,1,1*%
%TO.N,btn1*%
X148950000Y-107260000D03*
%TD*%
D11*
%TO.P,U1,14,VBUS*%
%TO.N,unconnected-(U1-VBUS-Pad14)*%
X178675000Y-83640000D03*
D12*
X177840000Y-83640000D03*
D11*
%TO.P,U1,13,GND*%
%TO.N,GND*%
X178675000Y-86180000D03*
D12*
X177840000Y-86180000D03*
D11*
%TO.P,U1,12,3V3*%
%TO.N,unconnected-(U1-3V3-Pad12)*%
X178675000Y-88720000D03*
D12*
X177840000Y-88720000D03*
D11*
%TO.P,U1,11,GPIO3/MOSI*%
%TO.N,unconnected-(U1-GPIO3{slash}MOSI-Pad11)*%
X178675000Y-91260000D03*
D12*
X177840000Y-91260000D03*
D11*
%TO.P,U1,10,GPIO4/MISO*%
%TO.N,unconnected-(U1-GPIO4{slash}MISO-Pad10)*%
X178675000Y-93800000D03*
D12*
X177840000Y-93800000D03*
D11*
%TO.P,U1,9,GPIO2/SCK*%
%TO.N,unconnected-(U1-GPIO2{slash}SCK-Pad9)*%
X178675000Y-96340000D03*
D12*
X177840000Y-96340000D03*
D11*
%TO.P,U1,8,GPIO1/RX*%
%TO.N,unconnected-(U1-GPIO1{slash}RX-Pad8)*%
X178675000Y-98880000D03*
D12*
X177840000Y-98880000D03*
%TO.P,U1,7,GPIO0/TX*%
%TO.N,unconnected-(U1-GPIO0{slash}TX-Pad7)*%
X162600000Y-98880000D03*
D13*
X161765000Y-98880000D03*
D12*
%TO.P,U1,6,GPIO7/SCL*%
%TO.N,led4*%
X162600000Y-96340000D03*
D13*
X161765000Y-96340000D03*
D12*
%TO.P,U1,5,GPIO6/SDA*%
%TO.N,led3*%
X162600000Y-93800000D03*
D13*
X161765000Y-93800000D03*
D12*
%TO.P,U1,4,GPIO29/ADC3/A3*%
%TO.N,led2*%
X162600000Y-91260000D03*
D13*
X161765000Y-91260000D03*
D12*
%TO.P,U1,3,GPIO28/ADC2/A2*%
%TO.N,led1*%
X162600000Y-88720000D03*
D13*
X161765000Y-88720000D03*
D12*
%TO.P,U1,2,GPIO27/ADC1/A1*%
%TO.N,btn2*%
X162600000Y-86180000D03*
D13*
X161765000Y-86180000D03*
D12*
%TO.P,U1,1,GPIO26/ADC0/A0*%
%TO.N,btn1*%
X162600000Y-83640000D03*
D13*
X161765000Y-83640000D03*
%TD*%
D14*
%TO.P,D1,A*%
%TO.N,Net-(D1-PadA)*%
X158490000Y-83260000D03*
D15*
%TO.P,D1,C*%
%TO.N,GND*%
X155950000Y-83260000D03*
%TD*%
D16*
%TO.P,R4,1*%
%TO.N,Net-(D4-PadA)*%
X140600000Y-89260000D03*
%TO.P,R4,2*%
%TO.N,led4*%
X140600000Y-94340000D03*
%TD*%
%TO.P,R3,1*%
%TO.N,Net-(D3-PadA)*%
X146600000Y-89260000D03*
%TO.P,R3,2*%
%TO.N,led3*%
X146600000Y-94340000D03*
%TD*%
%TO.P,R2,1*%
%TO.N,Net-(D2-PadA)*%
X152600000Y-89260000D03*
%TO.P,R2,2*%
%TO.N,led2*%
X152600000Y-94340000D03*
%TD*%
%TO.P,R1,1*%
%TO.N,Net-(D1-PadA)*%
X158600000Y-89220000D03*
%TO.P,R1,2*%
%TO.N,led1*%
X158600000Y-94300000D03*
%TD*%
D15*
%TO.P,D4,C*%
%TO.N,GND*%
X137950000Y-83260000D03*
D14*
%TO.P,D4,A*%
%TO.N,Net-(D4-PadA)*%
X140490000Y-83260000D03*
%TD*%
D15*
%TO.P,D3,C*%
%TO.N,GND*%
X143950000Y-83260000D03*
D14*
%TO.P,D3,A*%
%TO.N,Net-(D3-PadA)*%
X146490000Y-83260000D03*
%TD*%
D15*
%TO.P,D2,C*%
%TO.N,GND*%
X149950000Y-83260000D03*
D14*
%TO.P,D2,A*%
%TO.N,Net-(D2-PadA)*%
X152490000Y-83260000D03*
%TD*%
D17*
%TO.N,btn2*%
X162600000Y-86180000D02*
X161765000Y-86180000D01*
X172720000Y-96300000D02*
X162600000Y-86180000D01*
X172720000Y-107220000D02*
X172720000Y-96300000D01*
%TO.N,led4*%
X142600000Y-96340000D02*
X162600000Y-96340000D01*
X140600000Y-94340000D02*
X142600000Y-96340000D01*
%TO.N,led1*%
X161522370Y-88720000D02*
X162600000Y-88720000D01*
X158600000Y-91642370D02*
X161522370Y-88720000D01*
X158600000Y-94300000D02*
X158600000Y-91642370D01*
%TO.N,Net-(D1-PadA)*%
X158600000Y-83370000D02*
X158490000Y-83260000D01*
X158600000Y-89220000D02*
X158600000Y-83370000D01*
%TO.N,Net-(D2-PadA)*%
X152600000Y-83370000D02*
X152490000Y-83260000D01*
X152600000Y-89260000D02*
X152600000Y-83370000D01*
%TO.N,Net-(D3-PadA)*%
X146600000Y-83370000D02*
X146490000Y-83260000D01*
X146600000Y-89260000D02*
X146600000Y-83370000D01*
%TO.N,Net-(D4-PadA)*%
X140600000Y-83370000D02*
X140490000Y-83260000D01*
X140600000Y-89260000D02*
X140600000Y-83370000D01*
%TD*%
M02*
