%TF.GenerationSoftware,KiCad,Pcbnew,9.0.2*%
%TF.CreationDate,2025-06-30T19:38:48+03:00*%
%TF.ProjectId,pathfinder,70617468-6669-46e6-9465-722e6b696361,rev?*%
%TF.SameCoordinates,Original*%
%TF.FileFunction,Legend,Top*%
%TF.FilePolarity,Positive*%
%FSLAX46Y46*%
G04 Gerber Fmt 4.6, Leading zero omitted, Abs format (unit mm)*
G04 Created by KiCad (PCBNEW 9.0.2) date 2025-06-30 19:38:48*
%MOMM*%
%LPD*%
G01*
G04 APERTURE LIST*
%ADD10C,0.150000*%
%ADD11C,0.101600*%
%ADD12C,0.120000*%
%ADD13C,0.504000*%
%ADD14C,0.127000*%
%ADD15C,0.100000*%
%ADD16C,0.200000*%
G04 APERTURE END LIST*
D10*
X168846667Y-104833200D02*
X168989524Y-104880819D01*
X168989524Y-104880819D02*
X169227619Y-104880819D01*
X169227619Y-104880819D02*
X169322857Y-104833200D01*
X169322857Y-104833200D02*
X169370476Y-104785580D01*
X169370476Y-104785580D02*
X169418095Y-104690342D01*
X169418095Y-104690342D02*
X169418095Y-104595104D01*
X169418095Y-104595104D02*
X169370476Y-104499866D01*
X169370476Y-104499866D02*
X169322857Y-104452247D01*
X169322857Y-104452247D02*
X169227619Y-104404628D01*
X169227619Y-104404628D02*
X169037143Y-104357009D01*
X169037143Y-104357009D02*
X168941905Y-104309390D01*
X168941905Y-104309390D02*
X168894286Y-104261771D01*
X168894286Y-104261771D02*
X168846667Y-104166533D01*
X168846667Y-104166533D02*
X168846667Y-104071295D01*
X168846667Y-104071295D02*
X168894286Y-103976057D01*
X168894286Y-103976057D02*
X168941905Y-103928438D01*
X168941905Y-103928438D02*
X169037143Y-103880819D01*
X169037143Y-103880819D02*
X169275238Y-103880819D01*
X169275238Y-103880819D02*
X169418095Y-103928438D01*
X169751429Y-103880819D02*
X169989524Y-104880819D01*
X169989524Y-104880819D02*
X170180000Y-104166533D01*
X170180000Y-104166533D02*
X170370476Y-104880819D01*
X170370476Y-104880819D02*
X170608572Y-103880819D01*
X170941905Y-103976057D02*
X170989524Y-103928438D01*
X170989524Y-103928438D02*
X171084762Y-103880819D01*
X171084762Y-103880819D02*
X171322857Y-103880819D01*
X171322857Y-103880819D02*
X171418095Y-103928438D01*
X171418095Y-103928438D02*
X171465714Y-103976057D01*
X171465714Y-103976057D02*
X171513333Y-104071295D01*
X171513333Y-104071295D02*
X171513333Y-104166533D01*
X171513333Y-104166533D02*
X171465714Y-104309390D01*
X171465714Y-104309390D02*
X170894286Y-104880819D01*
X170894286Y-104880819D02*
X171513333Y-104880819D01*
X145076667Y-104873200D02*
X145219524Y-104920819D01*
X145219524Y-104920819D02*
X145457619Y-104920819D01*
X145457619Y-104920819D02*
X145552857Y-104873200D01*
X145552857Y-104873200D02*
X145600476Y-104825580D01*
X145600476Y-104825580D02*
X145648095Y-104730342D01*
X145648095Y-104730342D02*
X145648095Y-104635104D01*
X145648095Y-104635104D02*
X145600476Y-104539866D01*
X145600476Y-104539866D02*
X145552857Y-104492247D01*
X145552857Y-104492247D02*
X145457619Y-104444628D01*
X145457619Y-104444628D02*
X145267143Y-104397009D01*
X145267143Y-104397009D02*
X145171905Y-104349390D01*
X145171905Y-104349390D02*
X145124286Y-104301771D01*
X145124286Y-104301771D02*
X145076667Y-104206533D01*
X145076667Y-104206533D02*
X145076667Y-104111295D01*
X145076667Y-104111295D02*
X145124286Y-104016057D01*
X145124286Y-104016057D02*
X145171905Y-103968438D01*
X145171905Y-103968438D02*
X145267143Y-103920819D01*
X145267143Y-103920819D02*
X145505238Y-103920819D01*
X145505238Y-103920819D02*
X145648095Y-103968438D01*
X145981429Y-103920819D02*
X146219524Y-104920819D01*
X146219524Y-104920819D02*
X146410000Y-104206533D01*
X146410000Y-104206533D02*
X146600476Y-104920819D01*
X146600476Y-104920819D02*
X146838572Y-103920819D01*
X147743333Y-104920819D02*
X147171905Y-104920819D01*
X147457619Y-104920819D02*
X147457619Y-103920819D01*
X147457619Y-103920819D02*
X147362381Y-104063676D01*
X147362381Y-104063676D02*
X147267143Y-104158914D01*
X147267143Y-104158914D02*
X147171905Y-104206533D01*
D11*
X161236190Y-78913479D02*
X161236190Y-79427526D01*
X161236190Y-79427526D02*
X161266428Y-79488002D01*
X161266428Y-79488002D02*
X161296666Y-79518241D01*
X161296666Y-79518241D02*
X161357142Y-79548479D01*
X161357142Y-79548479D02*
X161478095Y-79548479D01*
X161478095Y-79548479D02*
X161538571Y-79518241D01*
X161538571Y-79518241D02*
X161568809Y-79488002D01*
X161568809Y-79488002D02*
X161599047Y-79427526D01*
X161599047Y-79427526D02*
X161599047Y-78913479D01*
X162234047Y-79548479D02*
X161871190Y-79548479D01*
X162052618Y-79548479D02*
X162052618Y-78913479D01*
X162052618Y-78913479D02*
X161992142Y-79004193D01*
X161992142Y-79004193D02*
X161931666Y-79064669D01*
X161931666Y-79064669D02*
X161871190Y-79094907D01*
D10*
X156669524Y-79914295D02*
X156669524Y-79114295D01*
X156669524Y-79114295D02*
X156860000Y-79114295D01*
X156860000Y-79114295D02*
X156974286Y-79152390D01*
X156974286Y-79152390D02*
X157050476Y-79228580D01*
X157050476Y-79228580D02*
X157088571Y-79304771D01*
X157088571Y-79304771D02*
X157126667Y-79457152D01*
X157126667Y-79457152D02*
X157126667Y-79571438D01*
X157126667Y-79571438D02*
X157088571Y-79723819D01*
X157088571Y-79723819D02*
X157050476Y-79800009D01*
X157050476Y-79800009D02*
X156974286Y-79876200D01*
X156974286Y-79876200D02*
X156860000Y-79914295D01*
X156860000Y-79914295D02*
X156669524Y-79914295D01*
X157888571Y-79914295D02*
X157431428Y-79914295D01*
X157660000Y-79914295D02*
X157660000Y-79114295D01*
X157660000Y-79114295D02*
X157583809Y-79228580D01*
X157583809Y-79228580D02*
X157507619Y-79304771D01*
X157507619Y-79304771D02*
X157431428Y-79342866D01*
X142974819Y-91966666D02*
X142498628Y-92299999D01*
X142974819Y-92538094D02*
X141974819Y-92538094D01*
X141974819Y-92538094D02*
X141974819Y-92157142D01*
X141974819Y-92157142D02*
X142022438Y-92061904D01*
X142022438Y-92061904D02*
X142070057Y-92014285D01*
X142070057Y-92014285D02*
X142165295Y-91966666D01*
X142165295Y-91966666D02*
X142308152Y-91966666D01*
X142308152Y-91966666D02*
X142403390Y-92014285D01*
X142403390Y-92014285D02*
X142451009Y-92061904D01*
X142451009Y-92061904D02*
X142498628Y-92157142D01*
X142498628Y-92157142D02*
X142498628Y-92538094D01*
X142308152Y-91109523D02*
X142974819Y-91109523D01*
X141927200Y-91347618D02*
X142641485Y-91585713D01*
X142641485Y-91585713D02*
X142641485Y-90966666D01*
X148974819Y-91966666D02*
X148498628Y-92299999D01*
X148974819Y-92538094D02*
X147974819Y-92538094D01*
X147974819Y-92538094D02*
X147974819Y-92157142D01*
X147974819Y-92157142D02*
X148022438Y-92061904D01*
X148022438Y-92061904D02*
X148070057Y-92014285D01*
X148070057Y-92014285D02*
X148165295Y-91966666D01*
X148165295Y-91966666D02*
X148308152Y-91966666D01*
X148308152Y-91966666D02*
X148403390Y-92014285D01*
X148403390Y-92014285D02*
X148451009Y-92061904D01*
X148451009Y-92061904D02*
X148498628Y-92157142D01*
X148498628Y-92157142D02*
X148498628Y-92538094D01*
X147974819Y-91633332D02*
X147974819Y-91014285D01*
X147974819Y-91014285D02*
X148355771Y-91347618D01*
X148355771Y-91347618D02*
X148355771Y-91204761D01*
X148355771Y-91204761D02*
X148403390Y-91109523D01*
X148403390Y-91109523D02*
X148451009Y-91061904D01*
X148451009Y-91061904D02*
X148546247Y-91014285D01*
X148546247Y-91014285D02*
X148784342Y-91014285D01*
X148784342Y-91014285D02*
X148879580Y-91061904D01*
X148879580Y-91061904D02*
X148927200Y-91109523D01*
X148927200Y-91109523D02*
X148974819Y-91204761D01*
X148974819Y-91204761D02*
X148974819Y-91490475D01*
X148974819Y-91490475D02*
X148927200Y-91585713D01*
X148927200Y-91585713D02*
X148879580Y-91633332D01*
X154974819Y-91966666D02*
X154498628Y-92299999D01*
X154974819Y-92538094D02*
X153974819Y-92538094D01*
X153974819Y-92538094D02*
X153974819Y-92157142D01*
X153974819Y-92157142D02*
X154022438Y-92061904D01*
X154022438Y-92061904D02*
X154070057Y-92014285D01*
X154070057Y-92014285D02*
X154165295Y-91966666D01*
X154165295Y-91966666D02*
X154308152Y-91966666D01*
X154308152Y-91966666D02*
X154403390Y-92014285D01*
X154403390Y-92014285D02*
X154451009Y-92061904D01*
X154451009Y-92061904D02*
X154498628Y-92157142D01*
X154498628Y-92157142D02*
X154498628Y-92538094D01*
X154070057Y-91585713D02*
X154022438Y-91538094D01*
X154022438Y-91538094D02*
X153974819Y-91442856D01*
X153974819Y-91442856D02*
X153974819Y-91204761D01*
X153974819Y-91204761D02*
X154022438Y-91109523D01*
X154022438Y-91109523D02*
X154070057Y-91061904D01*
X154070057Y-91061904D02*
X154165295Y-91014285D01*
X154165295Y-91014285D02*
X154260533Y-91014285D01*
X154260533Y-91014285D02*
X154403390Y-91061904D01*
X154403390Y-91061904D02*
X154974819Y-91633332D01*
X154974819Y-91633332D02*
X154974819Y-91014285D01*
X160974819Y-91926666D02*
X160498628Y-92259999D01*
X160974819Y-92498094D02*
X159974819Y-92498094D01*
X159974819Y-92498094D02*
X159974819Y-92117142D01*
X159974819Y-92117142D02*
X160022438Y-92021904D01*
X160022438Y-92021904D02*
X160070057Y-91974285D01*
X160070057Y-91974285D02*
X160165295Y-91926666D01*
X160165295Y-91926666D02*
X160308152Y-91926666D01*
X160308152Y-91926666D02*
X160403390Y-91974285D01*
X160403390Y-91974285D02*
X160451009Y-92021904D01*
X160451009Y-92021904D02*
X160498628Y-92117142D01*
X160498628Y-92117142D02*
X160498628Y-92498094D01*
X160974819Y-90974285D02*
X160974819Y-91545713D01*
X160974819Y-91259999D02*
X159974819Y-91259999D01*
X159974819Y-91259999D02*
X160117676Y-91355237D01*
X160117676Y-91355237D02*
X160212914Y-91450475D01*
X160212914Y-91450475D02*
X160260533Y-91545713D01*
X138669524Y-79914295D02*
X138669524Y-79114295D01*
X138669524Y-79114295D02*
X138860000Y-79114295D01*
X138860000Y-79114295D02*
X138974286Y-79152390D01*
X138974286Y-79152390D02*
X139050476Y-79228580D01*
X139050476Y-79228580D02*
X139088571Y-79304771D01*
X139088571Y-79304771D02*
X139126667Y-79457152D01*
X139126667Y-79457152D02*
X139126667Y-79571438D01*
X139126667Y-79571438D02*
X139088571Y-79723819D01*
X139088571Y-79723819D02*
X139050476Y-79800009D01*
X139050476Y-79800009D02*
X138974286Y-79876200D01*
X138974286Y-79876200D02*
X138860000Y-79914295D01*
X138860000Y-79914295D02*
X138669524Y-79914295D01*
X139812381Y-79380961D02*
X139812381Y-79914295D01*
X139621905Y-79076200D02*
X139431428Y-79647628D01*
X139431428Y-79647628D02*
X139926667Y-79647628D01*
X144669524Y-79914295D02*
X144669524Y-79114295D01*
X144669524Y-79114295D02*
X144860000Y-79114295D01*
X144860000Y-79114295D02*
X144974286Y-79152390D01*
X144974286Y-79152390D02*
X145050476Y-79228580D01*
X145050476Y-79228580D02*
X145088571Y-79304771D01*
X145088571Y-79304771D02*
X145126667Y-79457152D01*
X145126667Y-79457152D02*
X145126667Y-79571438D01*
X145126667Y-79571438D02*
X145088571Y-79723819D01*
X145088571Y-79723819D02*
X145050476Y-79800009D01*
X145050476Y-79800009D02*
X144974286Y-79876200D01*
X144974286Y-79876200D02*
X144860000Y-79914295D01*
X144860000Y-79914295D02*
X144669524Y-79914295D01*
X145393333Y-79114295D02*
X145888571Y-79114295D01*
X145888571Y-79114295D02*
X145621905Y-79419057D01*
X145621905Y-79419057D02*
X145736190Y-79419057D01*
X145736190Y-79419057D02*
X145812381Y-79457152D01*
X145812381Y-79457152D02*
X145850476Y-79495247D01*
X145850476Y-79495247D02*
X145888571Y-79571438D01*
X145888571Y-79571438D02*
X145888571Y-79761914D01*
X145888571Y-79761914D02*
X145850476Y-79838104D01*
X145850476Y-79838104D02*
X145812381Y-79876200D01*
X145812381Y-79876200D02*
X145736190Y-79914295D01*
X145736190Y-79914295D02*
X145507619Y-79914295D01*
X145507619Y-79914295D02*
X145431428Y-79876200D01*
X145431428Y-79876200D02*
X145393333Y-79838104D01*
X150669524Y-79914295D02*
X150669524Y-79114295D01*
X150669524Y-79114295D02*
X150860000Y-79114295D01*
X150860000Y-79114295D02*
X150974286Y-79152390D01*
X150974286Y-79152390D02*
X151050476Y-79228580D01*
X151050476Y-79228580D02*
X151088571Y-79304771D01*
X151088571Y-79304771D02*
X151126667Y-79457152D01*
X151126667Y-79457152D02*
X151126667Y-79571438D01*
X151126667Y-79571438D02*
X151088571Y-79723819D01*
X151088571Y-79723819D02*
X151050476Y-79800009D01*
X151050476Y-79800009D02*
X150974286Y-79876200D01*
X150974286Y-79876200D02*
X150860000Y-79914295D01*
X150860000Y-79914295D02*
X150669524Y-79914295D01*
X151431428Y-79190485D02*
X151469524Y-79152390D01*
X151469524Y-79152390D02*
X151545714Y-79114295D01*
X151545714Y-79114295D02*
X151736190Y-79114295D01*
X151736190Y-79114295D02*
X151812381Y-79152390D01*
X151812381Y-79152390D02*
X151850476Y-79190485D01*
X151850476Y-79190485D02*
X151888571Y-79266676D01*
X151888571Y-79266676D02*
X151888571Y-79342866D01*
X151888571Y-79342866D02*
X151850476Y-79457152D01*
X151850476Y-79457152D02*
X151393333Y-79914295D01*
X151393333Y-79914295D02*
X151888571Y-79914295D01*
D12*
%TO.C,SW2*%
X177165000Y-119285000D02*
X163195000Y-119285000D01*
X177165000Y-105315000D02*
X177165000Y-119285000D01*
X163195000Y-119285000D02*
X163195000Y-105315000D01*
X163195000Y-105315000D02*
X177165000Y-105315000D01*
%TO.C,SW1*%
X153395000Y-119325000D02*
X139425000Y-119325000D01*
X153395000Y-105355000D02*
X153395000Y-119325000D01*
X139425000Y-119325000D02*
X139425000Y-105355000D01*
X139425000Y-105355000D02*
X153395000Y-105355000D01*
%TO.C,U1*%
D13*
X162665000Y-81840000D02*
G75*
G02*
X162161000Y-81840000I-252000J0D01*
G01*
X162161000Y-81840000D02*
G75*
G02*
X162665000Y-81840000I252000J0D01*
G01*
X161522000Y-80960000D02*
G75*
G02*
X161018000Y-80960000I-252000J0D01*
G01*
X161018000Y-80960000D02*
G75*
G02*
X161522000Y-80960000I252000J0D01*
G01*
D14*
X179110000Y-99769000D02*
G75*
G02*
X177205000Y-101674000I-1905000J0D01*
G01*
X177205000Y-80719000D02*
G75*
G02*
X179110000Y-82624000I0J-1905000D01*
G01*
X174224000Y-79309000D02*
G75*
G02*
X174724000Y-79809000I0J-500000D01*
G01*
X165728728Y-79808728D02*
G75*
G02*
X166228728Y-79309001I500018J-291D01*
G01*
X163235000Y-101674000D02*
G75*
G02*
X161330000Y-99769000I1J1905001D01*
G01*
X161330000Y-82624000D02*
G75*
G02*
X163235000Y-80719000I1905001J-1D01*
G01*
X179110000Y-99769000D02*
X179110000Y-82624000D01*
X177205000Y-80719000D02*
X163235000Y-80719000D01*
D15*
X177205000Y-80719000D02*
X163235000Y-80719000D01*
D14*
X174724000Y-79809000D02*
X174724000Y-80719000D01*
X166228728Y-79309000D02*
X174224000Y-79309000D01*
X165725000Y-80719000D02*
X165728728Y-79808728D01*
X163235000Y-101674000D02*
X177205000Y-101674000D01*
X161330000Y-99769000D02*
X161330000Y-82624000D01*
%TO.C,D1*%
X154720000Y-81694000D02*
G75*
G02*
X154720000Y-84826000I2506124J-1566000D01*
G01*
X154720000Y-81694000D02*
X154720000Y-84826000D01*
D16*
X154120000Y-83260000D02*
G75*
G02*
X153920000Y-83260000I-100000J0D01*
G01*
X153920000Y-83260000D02*
G75*
G02*
X154120000Y-83260000I100000J0D01*
G01*
D12*
%TO.C,R4*%
X141520000Y-89880000D02*
X141520000Y-93720000D01*
X139680000Y-89880000D02*
X139680000Y-93720000D01*
%TO.C,R3*%
X147520000Y-89880000D02*
X147520000Y-93720000D01*
X145680000Y-89880000D02*
X145680000Y-93720000D01*
%TO.C,R2*%
X153520000Y-89880000D02*
X153520000Y-93720000D01*
X151680000Y-89880000D02*
X151680000Y-93720000D01*
%TO.C,R1*%
X159520000Y-89840000D02*
X159520000Y-93680000D01*
X157680000Y-89840000D02*
X157680000Y-93680000D01*
D16*
%TO.C,D4*%
X136120000Y-83260000D02*
G75*
G02*
X135920000Y-83260000I-100000J0D01*
G01*
X135920000Y-83260000D02*
G75*
G02*
X136120000Y-83260000I100000J0D01*
G01*
D14*
X136720000Y-81694000D02*
X136720000Y-84826000D01*
X136720000Y-81694000D02*
G75*
G02*
X136720000Y-84826000I2506124J-1566000D01*
G01*
D16*
%TO.C,D3*%
X142120000Y-83260000D02*
G75*
G02*
X141920000Y-83260000I-100000J0D01*
G01*
X141920000Y-83260000D02*
G75*
G02*
X142120000Y-83260000I100000J0D01*
G01*
D14*
X142720000Y-81694000D02*
X142720000Y-84826000D01*
X142720000Y-81694000D02*
G75*
G02*
X142720000Y-84826000I2506124J-1566000D01*
G01*
D16*
%TO.C,D2*%
X148120000Y-83260000D02*
G75*
G02*
X147920000Y-83260000I-100000J0D01*
G01*
X147920000Y-83260000D02*
G75*
G02*
X148120000Y-83260000I100000J0D01*
G01*
D14*
X148720000Y-81694000D02*
X148720000Y-84826000D01*
X148720000Y-81694000D02*
G75*
G02*
X148720000Y-84826000I2506124J-1566000D01*
G01*
%TD*%
M02*
