%TF.GenerationSoftware,KiCad,Pcbnew,9.0.2*%
%TF.CreationDate,2025-07-04T12:16:03+03:00*%
%TF.ProjectId,pathfinder,70617468-6669-46e6-9465-722e6b696361,rev?*%
%TF.SameCoordinates,Original*%
%TF.FileFunction,Legend,Top*%
%TF.FilePolarity,Positive*%
%FSLAX46Y46*%
G04 Gerber Fmt 4.6, Leading zero omitted, Abs format (unit mm)*
G04 Created by KiCad (PCBNEW 9.0.2) date 2025-07-04 12:16:03*
%MOMM*%
%LPD*%
G01*
G04 APERTURE LIST*
%ADD10C,0.100000*%
%ADD11C,0.150000*%
%ADD12C,0.101600*%
%ADD13C,0.120000*%
%ADD14C,0.127000*%
%ADD15C,0.200000*%
%ADD16C,0.504000*%
G04 APERTURE END LIST*
D10*
X137403884Y-100922419D02*
X137403884Y-99922419D01*
X137975312Y-100922419D02*
X137546741Y-100350990D01*
X137975312Y-99922419D02*
X137403884Y-100493847D01*
X138546741Y-100922419D02*
X138451503Y-100874800D01*
X138451503Y-100874800D02*
X138403884Y-100827180D01*
X138403884Y-100827180D02*
X138356265Y-100731942D01*
X138356265Y-100731942D02*
X138356265Y-100446228D01*
X138356265Y-100446228D02*
X138403884Y-100350990D01*
X138403884Y-100350990D02*
X138451503Y-100303371D01*
X138451503Y-100303371D02*
X138546741Y-100255752D01*
X138546741Y-100255752D02*
X138689598Y-100255752D01*
X138689598Y-100255752D02*
X138784836Y-100303371D01*
X138784836Y-100303371D02*
X138832455Y-100350990D01*
X138832455Y-100350990D02*
X138880074Y-100446228D01*
X138880074Y-100446228D02*
X138880074Y-100731942D01*
X138880074Y-100731942D02*
X138832455Y-100827180D01*
X138832455Y-100827180D02*
X138784836Y-100874800D01*
X138784836Y-100874800D02*
X138689598Y-100922419D01*
X138689598Y-100922419D02*
X138546741Y-100922419D01*
X139308646Y-100255752D02*
X139308646Y-100922419D01*
X139308646Y-100350990D02*
X139356265Y-100303371D01*
X139356265Y-100303371D02*
X139451503Y-100255752D01*
X139451503Y-100255752D02*
X139594360Y-100255752D01*
X139594360Y-100255752D02*
X139689598Y-100303371D01*
X139689598Y-100303371D02*
X139737217Y-100398609D01*
X139737217Y-100398609D02*
X139737217Y-100922419D01*
X140165789Y-100874800D02*
X140261027Y-100922419D01*
X140261027Y-100922419D02*
X140451503Y-100922419D01*
X140451503Y-100922419D02*
X140546741Y-100874800D01*
X140546741Y-100874800D02*
X140594360Y-100779561D01*
X140594360Y-100779561D02*
X140594360Y-100731942D01*
X140594360Y-100731942D02*
X140546741Y-100636704D01*
X140546741Y-100636704D02*
X140451503Y-100589085D01*
X140451503Y-100589085D02*
X140308646Y-100589085D01*
X140308646Y-100589085D02*
X140213408Y-100541466D01*
X140213408Y-100541466D02*
X140165789Y-100446228D01*
X140165789Y-100446228D02*
X140165789Y-100398609D01*
X140165789Y-100398609D02*
X140213408Y-100303371D01*
X140213408Y-100303371D02*
X140308646Y-100255752D01*
X140308646Y-100255752D02*
X140451503Y-100255752D01*
X140451503Y-100255752D02*
X140546741Y-100303371D01*
X140880075Y-100255752D02*
X141261027Y-100255752D01*
X141022932Y-99922419D02*
X141022932Y-100779561D01*
X141022932Y-100779561D02*
X141070551Y-100874800D01*
X141070551Y-100874800D02*
X141165789Y-100922419D01*
X141165789Y-100922419D02*
X141261027Y-100922419D01*
X142022932Y-100922419D02*
X142022932Y-100398609D01*
X142022932Y-100398609D02*
X141975313Y-100303371D01*
X141975313Y-100303371D02*
X141880075Y-100255752D01*
X141880075Y-100255752D02*
X141689599Y-100255752D01*
X141689599Y-100255752D02*
X141594361Y-100303371D01*
X142022932Y-100874800D02*
X141927694Y-100922419D01*
X141927694Y-100922419D02*
X141689599Y-100922419D01*
X141689599Y-100922419D02*
X141594361Y-100874800D01*
X141594361Y-100874800D02*
X141546742Y-100779561D01*
X141546742Y-100779561D02*
X141546742Y-100684323D01*
X141546742Y-100684323D02*
X141594361Y-100589085D01*
X141594361Y-100589085D02*
X141689599Y-100541466D01*
X141689599Y-100541466D02*
X141927694Y-100541466D01*
X141927694Y-100541466D02*
X142022932Y-100493847D01*
X142499123Y-100255752D02*
X142499123Y-100922419D01*
X142499123Y-100350990D02*
X142546742Y-100303371D01*
X142546742Y-100303371D02*
X142641980Y-100255752D01*
X142641980Y-100255752D02*
X142784837Y-100255752D01*
X142784837Y-100255752D02*
X142880075Y-100303371D01*
X142880075Y-100303371D02*
X142927694Y-100398609D01*
X142927694Y-100398609D02*
X142927694Y-100922419D01*
X143261028Y-100255752D02*
X143641980Y-100255752D01*
X143403885Y-99922419D02*
X143403885Y-100779561D01*
X143403885Y-100779561D02*
X143451504Y-100874800D01*
X143451504Y-100874800D02*
X143546742Y-100922419D01*
X143546742Y-100922419D02*
X143641980Y-100922419D01*
X143975314Y-100922419D02*
X143975314Y-100255752D01*
X143975314Y-99922419D02*
X143927695Y-99970038D01*
X143927695Y-99970038D02*
X143975314Y-100017657D01*
X143975314Y-100017657D02*
X144022933Y-99970038D01*
X144022933Y-99970038D02*
X143975314Y-99922419D01*
X143975314Y-99922419D02*
X143975314Y-100017657D01*
X144451504Y-100255752D02*
X144451504Y-100922419D01*
X144451504Y-100350990D02*
X144499123Y-100303371D01*
X144499123Y-100303371D02*
X144594361Y-100255752D01*
X144594361Y-100255752D02*
X144737218Y-100255752D01*
X144737218Y-100255752D02*
X144832456Y-100303371D01*
X144832456Y-100303371D02*
X144880075Y-100398609D01*
X144880075Y-100398609D02*
X144880075Y-100922419D01*
X145499123Y-100922419D02*
X145403885Y-100874800D01*
X145403885Y-100874800D02*
X145356266Y-100827180D01*
X145356266Y-100827180D02*
X145308647Y-100731942D01*
X145308647Y-100731942D02*
X145308647Y-100446228D01*
X145308647Y-100446228D02*
X145356266Y-100350990D01*
X145356266Y-100350990D02*
X145403885Y-100303371D01*
X145403885Y-100303371D02*
X145499123Y-100255752D01*
X145499123Y-100255752D02*
X145641980Y-100255752D01*
X145641980Y-100255752D02*
X145737218Y-100303371D01*
X145737218Y-100303371D02*
X145784837Y-100350990D01*
X145784837Y-100350990D02*
X145832456Y-100446228D01*
X145832456Y-100446228D02*
X145832456Y-100731942D01*
X145832456Y-100731942D02*
X145784837Y-100827180D01*
X145784837Y-100827180D02*
X145737218Y-100874800D01*
X145737218Y-100874800D02*
X145641980Y-100922419D01*
X145641980Y-100922419D02*
X145499123Y-100922419D01*
X146213409Y-100874800D02*
X146308647Y-100922419D01*
X146308647Y-100922419D02*
X146499123Y-100922419D01*
X146499123Y-100922419D02*
X146594361Y-100874800D01*
X146594361Y-100874800D02*
X146641980Y-100779561D01*
X146641980Y-100779561D02*
X146641980Y-100731942D01*
X146641980Y-100731942D02*
X146594361Y-100636704D01*
X146594361Y-100636704D02*
X146499123Y-100589085D01*
X146499123Y-100589085D02*
X146356266Y-100589085D01*
X146356266Y-100589085D02*
X146261028Y-100541466D01*
X146261028Y-100541466D02*
X146213409Y-100446228D01*
X146213409Y-100446228D02*
X146213409Y-100398609D01*
X146213409Y-100398609D02*
X146261028Y-100303371D01*
X146261028Y-100303371D02*
X146356266Y-100255752D01*
X146356266Y-100255752D02*
X146499123Y-100255752D01*
X146499123Y-100255752D02*
X146594361Y-100303371D01*
X148165790Y-100398609D02*
X147832457Y-100398609D01*
X147832457Y-100922419D02*
X147832457Y-99922419D01*
X147832457Y-99922419D02*
X148308647Y-99922419D01*
X148689600Y-100922419D02*
X148689600Y-100255752D01*
X148689600Y-100446228D02*
X148737219Y-100350990D01*
X148737219Y-100350990D02*
X148784838Y-100303371D01*
X148784838Y-100303371D02*
X148880076Y-100255752D01*
X148880076Y-100255752D02*
X148975314Y-100255752D01*
X149737219Y-100922419D02*
X149737219Y-100398609D01*
X149737219Y-100398609D02*
X149689600Y-100303371D01*
X149689600Y-100303371D02*
X149594362Y-100255752D01*
X149594362Y-100255752D02*
X149403886Y-100255752D01*
X149403886Y-100255752D02*
X149308648Y-100303371D01*
X149737219Y-100874800D02*
X149641981Y-100922419D01*
X149641981Y-100922419D02*
X149403886Y-100922419D01*
X149403886Y-100922419D02*
X149308648Y-100874800D01*
X149308648Y-100874800D02*
X149261029Y-100779561D01*
X149261029Y-100779561D02*
X149261029Y-100684323D01*
X149261029Y-100684323D02*
X149308648Y-100589085D01*
X149308648Y-100589085D02*
X149403886Y-100541466D01*
X149403886Y-100541466D02*
X149641981Y-100541466D01*
X149641981Y-100541466D02*
X149737219Y-100493847D01*
X150641981Y-100255752D02*
X150641981Y-101065276D01*
X150641981Y-101065276D02*
X150594362Y-101160514D01*
X150594362Y-101160514D02*
X150546743Y-101208133D01*
X150546743Y-101208133D02*
X150451505Y-101255752D01*
X150451505Y-101255752D02*
X150308648Y-101255752D01*
X150308648Y-101255752D02*
X150213410Y-101208133D01*
X150641981Y-100874800D02*
X150546743Y-100922419D01*
X150546743Y-100922419D02*
X150356267Y-100922419D01*
X150356267Y-100922419D02*
X150261029Y-100874800D01*
X150261029Y-100874800D02*
X150213410Y-100827180D01*
X150213410Y-100827180D02*
X150165791Y-100731942D01*
X150165791Y-100731942D02*
X150165791Y-100446228D01*
X150165791Y-100446228D02*
X150213410Y-100350990D01*
X150213410Y-100350990D02*
X150261029Y-100303371D01*
X150261029Y-100303371D02*
X150356267Y-100255752D01*
X150356267Y-100255752D02*
X150546743Y-100255752D01*
X150546743Y-100255752D02*
X150641981Y-100303371D01*
X151118172Y-100922419D02*
X151118172Y-99922419D01*
X151213410Y-100541466D02*
X151499124Y-100922419D01*
X151499124Y-100255752D02*
X151118172Y-100636704D01*
X152070553Y-100922419D02*
X151975315Y-100874800D01*
X151975315Y-100874800D02*
X151927696Y-100827180D01*
X151927696Y-100827180D02*
X151880077Y-100731942D01*
X151880077Y-100731942D02*
X151880077Y-100446228D01*
X151880077Y-100446228D02*
X151927696Y-100350990D01*
X151927696Y-100350990D02*
X151975315Y-100303371D01*
X151975315Y-100303371D02*
X152070553Y-100255752D01*
X152070553Y-100255752D02*
X152213410Y-100255752D01*
X152213410Y-100255752D02*
X152308648Y-100303371D01*
X152308648Y-100303371D02*
X152356267Y-100350990D01*
X152356267Y-100350990D02*
X152403886Y-100446228D01*
X152403886Y-100446228D02*
X152403886Y-100731942D01*
X152403886Y-100731942D02*
X152356267Y-100827180D01*
X152356267Y-100827180D02*
X152308648Y-100874800D01*
X152308648Y-100874800D02*
X152213410Y-100922419D01*
X152213410Y-100922419D02*
X152070553Y-100922419D01*
X153261029Y-100255752D02*
X153261029Y-100922419D01*
X152832458Y-100255752D02*
X152832458Y-100779561D01*
X152832458Y-100779561D02*
X152880077Y-100874800D01*
X152880077Y-100874800D02*
X152975315Y-100922419D01*
X152975315Y-100922419D02*
X153118172Y-100922419D01*
X153118172Y-100922419D02*
X153213410Y-100874800D01*
X153213410Y-100874800D02*
X153261029Y-100827180D01*
X153880077Y-100922419D02*
X153784839Y-100874800D01*
X153784839Y-100874800D02*
X153737220Y-100779561D01*
X153737220Y-100779561D02*
X153737220Y-99922419D01*
X154261030Y-100922419D02*
X154261030Y-100255752D01*
X154261030Y-99922419D02*
X154213411Y-99970038D01*
X154213411Y-99970038D02*
X154261030Y-100017657D01*
X154261030Y-100017657D02*
X154308649Y-99970038D01*
X154308649Y-99970038D02*
X154261030Y-99922419D01*
X154261030Y-99922419D02*
X154261030Y-100017657D01*
X154689601Y-100874800D02*
X154784839Y-100922419D01*
X154784839Y-100922419D02*
X154975315Y-100922419D01*
X154975315Y-100922419D02*
X155070553Y-100874800D01*
X155070553Y-100874800D02*
X155118172Y-100779561D01*
X155118172Y-100779561D02*
X155118172Y-100731942D01*
X155118172Y-100731942D02*
X155070553Y-100636704D01*
X155070553Y-100636704D02*
X154975315Y-100589085D01*
X154975315Y-100589085D02*
X154832458Y-100589085D01*
X154832458Y-100589085D02*
X154737220Y-100541466D01*
X154737220Y-100541466D02*
X154689601Y-100446228D01*
X154689601Y-100446228D02*
X154689601Y-100398609D01*
X154689601Y-100398609D02*
X154737220Y-100303371D01*
X154737220Y-100303371D02*
X154832458Y-100255752D01*
X154832458Y-100255752D02*
X154975315Y-100255752D01*
X154975315Y-100255752D02*
X155070553Y-100303371D01*
X139975312Y-98922419D02*
X139641979Y-98446228D01*
X139403884Y-98922419D02*
X139403884Y-97922419D01*
X139403884Y-97922419D02*
X139784836Y-97922419D01*
X139784836Y-97922419D02*
X139880074Y-97970038D01*
X139880074Y-97970038D02*
X139927693Y-98017657D01*
X139927693Y-98017657D02*
X139975312Y-98112895D01*
X139975312Y-98112895D02*
X139975312Y-98255752D01*
X139975312Y-98255752D02*
X139927693Y-98350990D01*
X139927693Y-98350990D02*
X139880074Y-98398609D01*
X139880074Y-98398609D02*
X139784836Y-98446228D01*
X139784836Y-98446228D02*
X139403884Y-98446228D01*
X140784836Y-98874800D02*
X140689598Y-98922419D01*
X140689598Y-98922419D02*
X140499122Y-98922419D01*
X140499122Y-98922419D02*
X140403884Y-98874800D01*
X140403884Y-98874800D02*
X140356265Y-98779561D01*
X140356265Y-98779561D02*
X140356265Y-98398609D01*
X140356265Y-98398609D02*
X140403884Y-98303371D01*
X140403884Y-98303371D02*
X140499122Y-98255752D01*
X140499122Y-98255752D02*
X140689598Y-98255752D01*
X140689598Y-98255752D02*
X140784836Y-98303371D01*
X140784836Y-98303371D02*
X140832455Y-98398609D01*
X140832455Y-98398609D02*
X140832455Y-98493847D01*
X140832455Y-98493847D02*
X140356265Y-98589085D01*
X141689598Y-98922419D02*
X141689598Y-98398609D01*
X141689598Y-98398609D02*
X141641979Y-98303371D01*
X141641979Y-98303371D02*
X141546741Y-98255752D01*
X141546741Y-98255752D02*
X141356265Y-98255752D01*
X141356265Y-98255752D02*
X141261027Y-98303371D01*
X141689598Y-98874800D02*
X141594360Y-98922419D01*
X141594360Y-98922419D02*
X141356265Y-98922419D01*
X141356265Y-98922419D02*
X141261027Y-98874800D01*
X141261027Y-98874800D02*
X141213408Y-98779561D01*
X141213408Y-98779561D02*
X141213408Y-98684323D01*
X141213408Y-98684323D02*
X141261027Y-98589085D01*
X141261027Y-98589085D02*
X141356265Y-98541466D01*
X141356265Y-98541466D02*
X141594360Y-98541466D01*
X141594360Y-98541466D02*
X141689598Y-98493847D01*
X142594360Y-98874800D02*
X142499122Y-98922419D01*
X142499122Y-98922419D02*
X142308646Y-98922419D01*
X142308646Y-98922419D02*
X142213408Y-98874800D01*
X142213408Y-98874800D02*
X142165789Y-98827180D01*
X142165789Y-98827180D02*
X142118170Y-98731942D01*
X142118170Y-98731942D02*
X142118170Y-98446228D01*
X142118170Y-98446228D02*
X142165789Y-98350990D01*
X142165789Y-98350990D02*
X142213408Y-98303371D01*
X142213408Y-98303371D02*
X142308646Y-98255752D01*
X142308646Y-98255752D02*
X142499122Y-98255752D01*
X142499122Y-98255752D02*
X142594360Y-98303371D01*
X142880075Y-98255752D02*
X143261027Y-98255752D01*
X143022932Y-97922419D02*
X143022932Y-98779561D01*
X143022932Y-98779561D02*
X143070551Y-98874800D01*
X143070551Y-98874800D02*
X143165789Y-98922419D01*
X143165789Y-98922419D02*
X143261027Y-98922419D01*
X143594361Y-98922419D02*
X143594361Y-98255752D01*
X143594361Y-97922419D02*
X143546742Y-97970038D01*
X143546742Y-97970038D02*
X143594361Y-98017657D01*
X143594361Y-98017657D02*
X143641980Y-97970038D01*
X143641980Y-97970038D02*
X143594361Y-97922419D01*
X143594361Y-97922419D02*
X143594361Y-98017657D01*
X144213408Y-98922419D02*
X144118170Y-98874800D01*
X144118170Y-98874800D02*
X144070551Y-98827180D01*
X144070551Y-98827180D02*
X144022932Y-98731942D01*
X144022932Y-98731942D02*
X144022932Y-98446228D01*
X144022932Y-98446228D02*
X144070551Y-98350990D01*
X144070551Y-98350990D02*
X144118170Y-98303371D01*
X144118170Y-98303371D02*
X144213408Y-98255752D01*
X144213408Y-98255752D02*
X144356265Y-98255752D01*
X144356265Y-98255752D02*
X144451503Y-98303371D01*
X144451503Y-98303371D02*
X144499122Y-98350990D01*
X144499122Y-98350990D02*
X144546741Y-98446228D01*
X144546741Y-98446228D02*
X144546741Y-98731942D01*
X144546741Y-98731942D02*
X144499122Y-98827180D01*
X144499122Y-98827180D02*
X144451503Y-98874800D01*
X144451503Y-98874800D02*
X144356265Y-98922419D01*
X144356265Y-98922419D02*
X144213408Y-98922419D01*
X144975313Y-98255752D02*
X144975313Y-98922419D01*
X144975313Y-98350990D02*
X145022932Y-98303371D01*
X145022932Y-98303371D02*
X145118170Y-98255752D01*
X145118170Y-98255752D02*
X145261027Y-98255752D01*
X145261027Y-98255752D02*
X145356265Y-98303371D01*
X145356265Y-98303371D02*
X145403884Y-98398609D01*
X145403884Y-98398609D02*
X145403884Y-98922419D01*
X146499123Y-97922419D02*
X147070551Y-97922419D01*
X146784837Y-98922419D02*
X146784837Y-97922419D01*
X147403885Y-98922419D02*
X147403885Y-98255752D01*
X147403885Y-97922419D02*
X147356266Y-97970038D01*
X147356266Y-97970038D02*
X147403885Y-98017657D01*
X147403885Y-98017657D02*
X147451504Y-97970038D01*
X147451504Y-97970038D02*
X147403885Y-97922419D01*
X147403885Y-97922419D02*
X147403885Y-98017657D01*
X147880075Y-98922419D02*
X147880075Y-98255752D01*
X147880075Y-98350990D02*
X147927694Y-98303371D01*
X147927694Y-98303371D02*
X148022932Y-98255752D01*
X148022932Y-98255752D02*
X148165789Y-98255752D01*
X148165789Y-98255752D02*
X148261027Y-98303371D01*
X148261027Y-98303371D02*
X148308646Y-98398609D01*
X148308646Y-98398609D02*
X148308646Y-98922419D01*
X148308646Y-98398609D02*
X148356265Y-98303371D01*
X148356265Y-98303371D02*
X148451503Y-98255752D01*
X148451503Y-98255752D02*
X148594360Y-98255752D01*
X148594360Y-98255752D02*
X148689599Y-98303371D01*
X148689599Y-98303371D02*
X148737218Y-98398609D01*
X148737218Y-98398609D02*
X148737218Y-98922419D01*
X149594360Y-98874800D02*
X149499122Y-98922419D01*
X149499122Y-98922419D02*
X149308646Y-98922419D01*
X149308646Y-98922419D02*
X149213408Y-98874800D01*
X149213408Y-98874800D02*
X149165789Y-98779561D01*
X149165789Y-98779561D02*
X149165789Y-98398609D01*
X149165789Y-98398609D02*
X149213408Y-98303371D01*
X149213408Y-98303371D02*
X149308646Y-98255752D01*
X149308646Y-98255752D02*
X149499122Y-98255752D01*
X149499122Y-98255752D02*
X149594360Y-98303371D01*
X149594360Y-98303371D02*
X149641979Y-98398609D01*
X149641979Y-98398609D02*
X149641979Y-98493847D01*
X149641979Y-98493847D02*
X149165789Y-98589085D01*
X150689599Y-97922419D02*
X151261027Y-97922419D01*
X150975313Y-98922419D02*
X150975313Y-97922419D01*
X151975313Y-98874800D02*
X151880075Y-98922419D01*
X151880075Y-98922419D02*
X151689599Y-98922419D01*
X151689599Y-98922419D02*
X151594361Y-98874800D01*
X151594361Y-98874800D02*
X151546742Y-98779561D01*
X151546742Y-98779561D02*
X151546742Y-98398609D01*
X151546742Y-98398609D02*
X151594361Y-98303371D01*
X151594361Y-98303371D02*
X151689599Y-98255752D01*
X151689599Y-98255752D02*
X151880075Y-98255752D01*
X151880075Y-98255752D02*
X151975313Y-98303371D01*
X151975313Y-98303371D02*
X152022932Y-98398609D01*
X152022932Y-98398609D02*
X152022932Y-98493847D01*
X152022932Y-98493847D02*
X151546742Y-98589085D01*
X152403885Y-98874800D02*
X152499123Y-98922419D01*
X152499123Y-98922419D02*
X152689599Y-98922419D01*
X152689599Y-98922419D02*
X152784837Y-98874800D01*
X152784837Y-98874800D02*
X152832456Y-98779561D01*
X152832456Y-98779561D02*
X152832456Y-98731942D01*
X152832456Y-98731942D02*
X152784837Y-98636704D01*
X152784837Y-98636704D02*
X152689599Y-98589085D01*
X152689599Y-98589085D02*
X152546742Y-98589085D01*
X152546742Y-98589085D02*
X152451504Y-98541466D01*
X152451504Y-98541466D02*
X152403885Y-98446228D01*
X152403885Y-98446228D02*
X152403885Y-98398609D01*
X152403885Y-98398609D02*
X152451504Y-98303371D01*
X152451504Y-98303371D02*
X152546742Y-98255752D01*
X152546742Y-98255752D02*
X152689599Y-98255752D01*
X152689599Y-98255752D02*
X152784837Y-98303371D01*
X153118171Y-98255752D02*
X153499123Y-98255752D01*
X153261028Y-97922419D02*
X153261028Y-98779561D01*
X153261028Y-98779561D02*
X153308647Y-98874800D01*
X153308647Y-98874800D02*
X153403885Y-98922419D01*
X153403885Y-98922419D02*
X153499123Y-98922419D01*
D11*
X145076667Y-104873200D02*
X145219524Y-104920819D01*
X145219524Y-104920819D02*
X145457619Y-104920819D01*
X145457619Y-104920819D02*
X145552857Y-104873200D01*
X145552857Y-104873200D02*
X145600476Y-104825580D01*
X145600476Y-104825580D02*
X145648095Y-104730342D01*
X145648095Y-104730342D02*
X145648095Y-104635104D01*
X145648095Y-104635104D02*
X145600476Y-104539866D01*
X145600476Y-104539866D02*
X145552857Y-104492247D01*
X145552857Y-104492247D02*
X145457619Y-104444628D01*
X145457619Y-104444628D02*
X145267143Y-104397009D01*
X145267143Y-104397009D02*
X145171905Y-104349390D01*
X145171905Y-104349390D02*
X145124286Y-104301771D01*
X145124286Y-104301771D02*
X145076667Y-104206533D01*
X145076667Y-104206533D02*
X145076667Y-104111295D01*
X145076667Y-104111295D02*
X145124286Y-104016057D01*
X145124286Y-104016057D02*
X145171905Y-103968438D01*
X145171905Y-103968438D02*
X145267143Y-103920819D01*
X145267143Y-103920819D02*
X145505238Y-103920819D01*
X145505238Y-103920819D02*
X145648095Y-103968438D01*
X145981429Y-103920819D02*
X146219524Y-104920819D01*
X146219524Y-104920819D02*
X146410000Y-104206533D01*
X146410000Y-104206533D02*
X146600476Y-104920819D01*
X146600476Y-104920819D02*
X146838572Y-103920819D01*
X147743333Y-104920819D02*
X147171905Y-104920819D01*
X147457619Y-104920819D02*
X147457619Y-103920819D01*
X147457619Y-103920819D02*
X147362381Y-104063676D01*
X147362381Y-104063676D02*
X147267143Y-104158914D01*
X147267143Y-104158914D02*
X147171905Y-104206533D01*
X150669524Y-79914295D02*
X150669524Y-79114295D01*
X150669524Y-79114295D02*
X150860000Y-79114295D01*
X150860000Y-79114295D02*
X150974286Y-79152390D01*
X150974286Y-79152390D02*
X151050476Y-79228580D01*
X151050476Y-79228580D02*
X151088571Y-79304771D01*
X151088571Y-79304771D02*
X151126667Y-79457152D01*
X151126667Y-79457152D02*
X151126667Y-79571438D01*
X151126667Y-79571438D02*
X151088571Y-79723819D01*
X151088571Y-79723819D02*
X151050476Y-79800009D01*
X151050476Y-79800009D02*
X150974286Y-79876200D01*
X150974286Y-79876200D02*
X150860000Y-79914295D01*
X150860000Y-79914295D02*
X150669524Y-79914295D01*
X151431428Y-79190485D02*
X151469524Y-79152390D01*
X151469524Y-79152390D02*
X151545714Y-79114295D01*
X151545714Y-79114295D02*
X151736190Y-79114295D01*
X151736190Y-79114295D02*
X151812381Y-79152390D01*
X151812381Y-79152390D02*
X151850476Y-79190485D01*
X151850476Y-79190485D02*
X151888571Y-79266676D01*
X151888571Y-79266676D02*
X151888571Y-79342866D01*
X151888571Y-79342866D02*
X151850476Y-79457152D01*
X151850476Y-79457152D02*
X151393333Y-79914295D01*
X151393333Y-79914295D02*
X151888571Y-79914295D01*
X144669524Y-79914295D02*
X144669524Y-79114295D01*
X144669524Y-79114295D02*
X144860000Y-79114295D01*
X144860000Y-79114295D02*
X144974286Y-79152390D01*
X144974286Y-79152390D02*
X145050476Y-79228580D01*
X145050476Y-79228580D02*
X145088571Y-79304771D01*
X145088571Y-79304771D02*
X145126667Y-79457152D01*
X145126667Y-79457152D02*
X145126667Y-79571438D01*
X145126667Y-79571438D02*
X145088571Y-79723819D01*
X145088571Y-79723819D02*
X145050476Y-79800009D01*
X145050476Y-79800009D02*
X144974286Y-79876200D01*
X144974286Y-79876200D02*
X144860000Y-79914295D01*
X144860000Y-79914295D02*
X144669524Y-79914295D01*
X145393333Y-79114295D02*
X145888571Y-79114295D01*
X145888571Y-79114295D02*
X145621905Y-79419057D01*
X145621905Y-79419057D02*
X145736190Y-79419057D01*
X145736190Y-79419057D02*
X145812381Y-79457152D01*
X145812381Y-79457152D02*
X145850476Y-79495247D01*
X145850476Y-79495247D02*
X145888571Y-79571438D01*
X145888571Y-79571438D02*
X145888571Y-79761914D01*
X145888571Y-79761914D02*
X145850476Y-79838104D01*
X145850476Y-79838104D02*
X145812381Y-79876200D01*
X145812381Y-79876200D02*
X145736190Y-79914295D01*
X145736190Y-79914295D02*
X145507619Y-79914295D01*
X145507619Y-79914295D02*
X145431428Y-79876200D01*
X145431428Y-79876200D02*
X145393333Y-79838104D01*
X168846667Y-104833200D02*
X168989524Y-104880819D01*
X168989524Y-104880819D02*
X169227619Y-104880819D01*
X169227619Y-104880819D02*
X169322857Y-104833200D01*
X169322857Y-104833200D02*
X169370476Y-104785580D01*
X169370476Y-104785580D02*
X169418095Y-104690342D01*
X169418095Y-104690342D02*
X169418095Y-104595104D01*
X169418095Y-104595104D02*
X169370476Y-104499866D01*
X169370476Y-104499866D02*
X169322857Y-104452247D01*
X169322857Y-104452247D02*
X169227619Y-104404628D01*
X169227619Y-104404628D02*
X169037143Y-104357009D01*
X169037143Y-104357009D02*
X168941905Y-104309390D01*
X168941905Y-104309390D02*
X168894286Y-104261771D01*
X168894286Y-104261771D02*
X168846667Y-104166533D01*
X168846667Y-104166533D02*
X168846667Y-104071295D01*
X168846667Y-104071295D02*
X168894286Y-103976057D01*
X168894286Y-103976057D02*
X168941905Y-103928438D01*
X168941905Y-103928438D02*
X169037143Y-103880819D01*
X169037143Y-103880819D02*
X169275238Y-103880819D01*
X169275238Y-103880819D02*
X169418095Y-103928438D01*
X169751429Y-103880819D02*
X169989524Y-104880819D01*
X169989524Y-104880819D02*
X170180000Y-104166533D01*
X170180000Y-104166533D02*
X170370476Y-104880819D01*
X170370476Y-104880819D02*
X170608572Y-103880819D01*
X170941905Y-103976057D02*
X170989524Y-103928438D01*
X170989524Y-103928438D02*
X171084762Y-103880819D01*
X171084762Y-103880819D02*
X171322857Y-103880819D01*
X171322857Y-103880819D02*
X171418095Y-103928438D01*
X171418095Y-103928438D02*
X171465714Y-103976057D01*
X171465714Y-103976057D02*
X171513333Y-104071295D01*
X171513333Y-104071295D02*
X171513333Y-104166533D01*
X171513333Y-104166533D02*
X171465714Y-104309390D01*
X171465714Y-104309390D02*
X170894286Y-104880819D01*
X170894286Y-104880819D02*
X171513333Y-104880819D01*
X138669524Y-79914295D02*
X138669524Y-79114295D01*
X138669524Y-79114295D02*
X138860000Y-79114295D01*
X138860000Y-79114295D02*
X138974286Y-79152390D01*
X138974286Y-79152390D02*
X139050476Y-79228580D01*
X139050476Y-79228580D02*
X139088571Y-79304771D01*
X139088571Y-79304771D02*
X139126667Y-79457152D01*
X139126667Y-79457152D02*
X139126667Y-79571438D01*
X139126667Y-79571438D02*
X139088571Y-79723819D01*
X139088571Y-79723819D02*
X139050476Y-79800009D01*
X139050476Y-79800009D02*
X138974286Y-79876200D01*
X138974286Y-79876200D02*
X138860000Y-79914295D01*
X138860000Y-79914295D02*
X138669524Y-79914295D01*
X139812381Y-79380961D02*
X139812381Y-79914295D01*
X139621905Y-79076200D02*
X139431428Y-79647628D01*
X139431428Y-79647628D02*
X139926667Y-79647628D01*
X148974819Y-91966666D02*
X148498628Y-92299999D01*
X148974819Y-92538094D02*
X147974819Y-92538094D01*
X147974819Y-92538094D02*
X147974819Y-92157142D01*
X147974819Y-92157142D02*
X148022438Y-92061904D01*
X148022438Y-92061904D02*
X148070057Y-92014285D01*
X148070057Y-92014285D02*
X148165295Y-91966666D01*
X148165295Y-91966666D02*
X148308152Y-91966666D01*
X148308152Y-91966666D02*
X148403390Y-92014285D01*
X148403390Y-92014285D02*
X148451009Y-92061904D01*
X148451009Y-92061904D02*
X148498628Y-92157142D01*
X148498628Y-92157142D02*
X148498628Y-92538094D01*
X147974819Y-91633332D02*
X147974819Y-91014285D01*
X147974819Y-91014285D02*
X148355771Y-91347618D01*
X148355771Y-91347618D02*
X148355771Y-91204761D01*
X148355771Y-91204761D02*
X148403390Y-91109523D01*
X148403390Y-91109523D02*
X148451009Y-91061904D01*
X148451009Y-91061904D02*
X148546247Y-91014285D01*
X148546247Y-91014285D02*
X148784342Y-91014285D01*
X148784342Y-91014285D02*
X148879580Y-91061904D01*
X148879580Y-91061904D02*
X148927200Y-91109523D01*
X148927200Y-91109523D02*
X148974819Y-91204761D01*
X148974819Y-91204761D02*
X148974819Y-91490475D01*
X148974819Y-91490475D02*
X148927200Y-91585713D01*
X148927200Y-91585713D02*
X148879580Y-91633332D01*
X156669524Y-79914295D02*
X156669524Y-79114295D01*
X156669524Y-79114295D02*
X156860000Y-79114295D01*
X156860000Y-79114295D02*
X156974286Y-79152390D01*
X156974286Y-79152390D02*
X157050476Y-79228580D01*
X157050476Y-79228580D02*
X157088571Y-79304771D01*
X157088571Y-79304771D02*
X157126667Y-79457152D01*
X157126667Y-79457152D02*
X157126667Y-79571438D01*
X157126667Y-79571438D02*
X157088571Y-79723819D01*
X157088571Y-79723819D02*
X157050476Y-79800009D01*
X157050476Y-79800009D02*
X156974286Y-79876200D01*
X156974286Y-79876200D02*
X156860000Y-79914295D01*
X156860000Y-79914295D02*
X156669524Y-79914295D01*
X157888571Y-79914295D02*
X157431428Y-79914295D01*
X157660000Y-79914295D02*
X157660000Y-79114295D01*
X157660000Y-79114295D02*
X157583809Y-79228580D01*
X157583809Y-79228580D02*
X157507619Y-79304771D01*
X157507619Y-79304771D02*
X157431428Y-79342866D01*
X154974819Y-91966666D02*
X154498628Y-92299999D01*
X154974819Y-92538094D02*
X153974819Y-92538094D01*
X153974819Y-92538094D02*
X153974819Y-92157142D01*
X153974819Y-92157142D02*
X154022438Y-92061904D01*
X154022438Y-92061904D02*
X154070057Y-92014285D01*
X154070057Y-92014285D02*
X154165295Y-91966666D01*
X154165295Y-91966666D02*
X154308152Y-91966666D01*
X154308152Y-91966666D02*
X154403390Y-92014285D01*
X154403390Y-92014285D02*
X154451009Y-92061904D01*
X154451009Y-92061904D02*
X154498628Y-92157142D01*
X154498628Y-92157142D02*
X154498628Y-92538094D01*
X154070057Y-91585713D02*
X154022438Y-91538094D01*
X154022438Y-91538094D02*
X153974819Y-91442856D01*
X153974819Y-91442856D02*
X153974819Y-91204761D01*
X153974819Y-91204761D02*
X154022438Y-91109523D01*
X154022438Y-91109523D02*
X154070057Y-91061904D01*
X154070057Y-91061904D02*
X154165295Y-91014285D01*
X154165295Y-91014285D02*
X154260533Y-91014285D01*
X154260533Y-91014285D02*
X154403390Y-91061904D01*
X154403390Y-91061904D02*
X154974819Y-91633332D01*
X154974819Y-91633332D02*
X154974819Y-91014285D01*
D12*
X161236190Y-78913479D02*
X161236190Y-79427526D01*
X161236190Y-79427526D02*
X161266428Y-79488002D01*
X161266428Y-79488002D02*
X161296666Y-79518241D01*
X161296666Y-79518241D02*
X161357142Y-79548479D01*
X161357142Y-79548479D02*
X161478095Y-79548479D01*
X161478095Y-79548479D02*
X161538571Y-79518241D01*
X161538571Y-79518241D02*
X161568809Y-79488002D01*
X161568809Y-79488002D02*
X161599047Y-79427526D01*
X161599047Y-79427526D02*
X161599047Y-78913479D01*
X162234047Y-79548479D02*
X161871190Y-79548479D01*
X162052618Y-79548479D02*
X162052618Y-78913479D01*
X162052618Y-78913479D02*
X161992142Y-79004193D01*
X161992142Y-79004193D02*
X161931666Y-79064669D01*
X161931666Y-79064669D02*
X161871190Y-79094907D01*
D11*
X142974819Y-91966666D02*
X142498628Y-92299999D01*
X142974819Y-92538094D02*
X141974819Y-92538094D01*
X141974819Y-92538094D02*
X141974819Y-92157142D01*
X141974819Y-92157142D02*
X142022438Y-92061904D01*
X142022438Y-92061904D02*
X142070057Y-92014285D01*
X142070057Y-92014285D02*
X142165295Y-91966666D01*
X142165295Y-91966666D02*
X142308152Y-91966666D01*
X142308152Y-91966666D02*
X142403390Y-92014285D01*
X142403390Y-92014285D02*
X142451009Y-92061904D01*
X142451009Y-92061904D02*
X142498628Y-92157142D01*
X142498628Y-92157142D02*
X142498628Y-92538094D01*
X142308152Y-91109523D02*
X142974819Y-91109523D01*
X141927200Y-91347618D02*
X142641485Y-91585713D01*
X142641485Y-91585713D02*
X142641485Y-90966666D01*
X160974819Y-91926666D02*
X160498628Y-92259999D01*
X160974819Y-92498094D02*
X159974819Y-92498094D01*
X159974819Y-92498094D02*
X159974819Y-92117142D01*
X159974819Y-92117142D02*
X160022438Y-92021904D01*
X160022438Y-92021904D02*
X160070057Y-91974285D01*
X160070057Y-91974285D02*
X160165295Y-91926666D01*
X160165295Y-91926666D02*
X160308152Y-91926666D01*
X160308152Y-91926666D02*
X160403390Y-91974285D01*
X160403390Y-91974285D02*
X160451009Y-92021904D01*
X160451009Y-92021904D02*
X160498628Y-92117142D01*
X160498628Y-92117142D02*
X160498628Y-92498094D01*
X160974819Y-90974285D02*
X160974819Y-91545713D01*
X160974819Y-91259999D02*
X159974819Y-91259999D01*
X159974819Y-91259999D02*
X160117676Y-91355237D01*
X160117676Y-91355237D02*
X160212914Y-91450475D01*
X160212914Y-91450475D02*
X160260533Y-91545713D01*
D13*
%TO.C,SW1*%
X139425000Y-105355000D02*
X153395000Y-105355000D01*
X139425000Y-119325000D02*
X139425000Y-105355000D01*
X153395000Y-105355000D02*
X153395000Y-119325000D01*
X153395000Y-119325000D02*
X139425000Y-119325000D01*
D14*
%TO.C,D2*%
X148720000Y-81694000D02*
X148720000Y-84826000D01*
X148720000Y-81694000D02*
G75*
G02*
X148720000Y-84826000I2506124J-1566000D01*
G01*
D15*
X148120000Y-83260000D02*
G75*
G02*
X147920000Y-83260000I-100000J0D01*
G01*
X147920000Y-83260000D02*
G75*
G02*
X148120000Y-83260000I100000J0D01*
G01*
D14*
%TO.C,D3*%
X142720000Y-81694000D02*
X142720000Y-84826000D01*
X142720000Y-81694000D02*
G75*
G02*
X142720000Y-84826000I2506124J-1566000D01*
G01*
D15*
X142120000Y-83260000D02*
G75*
G02*
X141920000Y-83260000I-100000J0D01*
G01*
X141920000Y-83260000D02*
G75*
G02*
X142120000Y-83260000I100000J0D01*
G01*
D13*
%TO.C,SW2*%
X163195000Y-105315000D02*
X177165000Y-105315000D01*
X163195000Y-119285000D02*
X163195000Y-105315000D01*
X177165000Y-105315000D02*
X177165000Y-119285000D01*
X177165000Y-119285000D02*
X163195000Y-119285000D01*
D14*
%TO.C,D4*%
X136720000Y-81694000D02*
X136720000Y-84826000D01*
X136720000Y-81694000D02*
G75*
G02*
X136720000Y-84826000I2506124J-1566000D01*
G01*
D15*
X136120000Y-83260000D02*
G75*
G02*
X135920000Y-83260000I-100000J0D01*
G01*
X135920000Y-83260000D02*
G75*
G02*
X136120000Y-83260000I100000J0D01*
G01*
D13*
%TO.C,R3*%
X145680000Y-89880000D02*
X145680000Y-93720000D01*
X147520000Y-89880000D02*
X147520000Y-93720000D01*
D14*
%TO.C,D1*%
X154720000Y-81694000D02*
X154720000Y-84826000D01*
X154720000Y-81694000D02*
G75*
G02*
X154720000Y-84826000I2506124J-1566000D01*
G01*
D15*
X154120000Y-83260000D02*
G75*
G02*
X153920000Y-83260000I-100000J0D01*
G01*
X153920000Y-83260000D02*
G75*
G02*
X154120000Y-83260000I100000J0D01*
G01*
D13*
%TO.C,R2*%
X151680000Y-89880000D02*
X151680000Y-93720000D01*
X153520000Y-89880000D02*
X153520000Y-93720000D01*
D14*
%TO.C,U1*%
X161330000Y-99769000D02*
X161330000Y-82624000D01*
X163235000Y-101674000D02*
X177205000Y-101674000D01*
X165725000Y-80719000D02*
X165728728Y-79808728D01*
X166228728Y-79309000D02*
X174224000Y-79309000D01*
X174724000Y-79809000D02*
X174724000Y-80719000D01*
D10*
X177205000Y-80719000D02*
X163235000Y-80719000D01*
D14*
X177205000Y-80719000D02*
X163235000Y-80719000D01*
X179110000Y-99769000D02*
X179110000Y-82624000D01*
X161330000Y-82624000D02*
G75*
G02*
X163235000Y-80719000I1905001J-1D01*
G01*
X163235000Y-101674000D02*
G75*
G02*
X161330000Y-99769000I1J1905001D01*
G01*
X165728728Y-79808728D02*
G75*
G02*
X166228728Y-79309001I500018J-291D01*
G01*
X174224000Y-79309000D02*
G75*
G02*
X174724000Y-79809000I0J-500000D01*
G01*
X177205000Y-80719000D02*
G75*
G02*
X179110000Y-82624000I0J-1905000D01*
G01*
X179110000Y-99769000D02*
G75*
G02*
X177205000Y-101674000I-1905000J0D01*
G01*
D16*
X161522000Y-80960000D02*
G75*
G02*
X161018000Y-80960000I-252000J0D01*
G01*
X161018000Y-80960000D02*
G75*
G02*
X161522000Y-80960000I252000J0D01*
G01*
X162665000Y-81840000D02*
G75*
G02*
X162161000Y-81840000I-252000J0D01*
G01*
X162161000Y-81840000D02*
G75*
G02*
X162665000Y-81840000I252000J0D01*
G01*
D13*
%TO.C,R4*%
X139680000Y-89880000D02*
X139680000Y-93720000D01*
X141520000Y-89880000D02*
X141520000Y-93720000D01*
%TO.C,R1*%
X157680000Y-89840000D02*
X157680000Y-93680000D01*
X159520000Y-89840000D02*
X159520000Y-93680000D01*
%TD*%
M02*
