%TF.GenerationSoftware,KiCad,Pcbnew,9.0.2*%
%TF.CreationDate,2025-06-30T19:38:48+03:00*%
%TF.ProjectId,pathfinder,70617468-6669-46e6-9465-722e6b696361,rev?*%
%TF.SameCoordinates,Original*%
%TF.FileFunction,Soldermask,Bot*%
%TF.FilePolarity,Negative*%
%FSLAX46Y46*%
G04 Gerber Fmt 4.6, Leading zero omitted, Abs format (unit mm)*
G04 Created by KiCad (PCBNEW 9.0.2) date 2025-06-30 19:38:48*
%MOMM*%
%LPD*%
G01*
G04 APERTURE LIST*
G04 Aperture macros list*
%AMRoundRect*
0 Rectangle with rounded corners*
0 $1 Rounding radius*
0 $2 $3 $4 $5 $6 $7 $8 $9 X,Y pos of 4 corners*
0 Add a 4 corners polygon primitive as box body*
4,1,4,$2,$3,$4,$5,$6,$7,$8,$9,$2,$3,0*
0 Add four circle primitives for the rounded corners*
1,1,$1+$1,$2,$3*
1,1,$1+$1,$4,$5*
1,1,$1+$1,$6,$7*
1,1,$1+$1,$8,$9*
0 Add four rect primitives between the rounded corners*
20,1,$1+$1,$2,$3,$4,$5,0*
20,1,$1+$1,$4,$5,$6,$7,0*
20,1,$1+$1,$6,$7,$8,$9,0*
20,1,$1+$1,$8,$9,$2,$3,0*%
G04 Aperture macros list end*
%ADD10C,2.200000*%
%ADD11C,1.700000*%
%ADD12C,4.000000*%
%ADD13C,1.524000*%
%ADD14C,2.019000*%
%ADD15RoundRect,0.102000X-0.907500X-0.907500X0.907500X-0.907500X0.907500X0.907500X-0.907500X0.907500X0*%
%ADD16C,1.400000*%
G04 APERTURE END LIST*
D10*
%TO.C,SW2*%
X166370000Y-109760000D03*
X172720000Y-107220000D03*
D11*
X175260000Y-112300000D03*
D12*
X170180000Y-112300000D03*
D11*
X165100000Y-112300000D03*
%TD*%
D10*
%TO.C,SW1*%
X142600000Y-109800000D03*
X148950000Y-107260000D03*
D11*
X151490000Y-112340000D03*
D12*
X146410000Y-112340000D03*
D11*
X141330000Y-112340000D03*
%TD*%
D13*
%TO.C,U1*%
X177840000Y-83640000D03*
X177840000Y-86180000D03*
X177840000Y-88720000D03*
X177840000Y-91260000D03*
X177840000Y-93800000D03*
X177840000Y-96340000D03*
X177840000Y-98880000D03*
X162600000Y-98880000D03*
X162600000Y-96340000D03*
X162600000Y-93800000D03*
X162600000Y-91260000D03*
X162600000Y-88720000D03*
X162600000Y-86180000D03*
X162600000Y-83640000D03*
%TD*%
D14*
%TO.C,D1*%
X158490000Y-83260000D03*
D15*
X155950000Y-83260000D03*
%TD*%
D16*
%TO.C,R4*%
X140600000Y-89260000D03*
X140600000Y-94340000D03*
%TD*%
%TO.C,R3*%
X146600000Y-89260000D03*
X146600000Y-94340000D03*
%TD*%
%TO.C,R2*%
X152600000Y-89260000D03*
X152600000Y-94340000D03*
%TD*%
%TO.C,R1*%
X158600000Y-89220000D03*
X158600000Y-94300000D03*
%TD*%
D15*
%TO.C,D4*%
X137950000Y-83260000D03*
D14*
X140490000Y-83260000D03*
%TD*%
D15*
%TO.C,D3*%
X143950000Y-83260000D03*
D14*
X146490000Y-83260000D03*
%TD*%
D15*
%TO.C,D2*%
X149950000Y-83260000D03*
D14*
X152490000Y-83260000D03*
%TD*%
M02*
