%TF.GenerationSoftware,KiCad,Pcbnew,9.0.2*%
%TF.CreationDate,2025-06-30T19:38:48+03:00*%
%TF.ProjectId,pathfinder,70617468-6669-46e6-9465-722e6b696361,rev?*%
%TF.SameCoordinates,Original*%
%TF.FileFunction,Copper,L2,Bot*%
%TF.FilePolarity,Positive*%
%FSLAX46Y46*%
G04 Gerber Fmt 4.6, Leading zero omitted, Abs format (unit mm)*
G04 Created by KiCad (PCBNEW 9.0.2) date 2025-06-30 19:38:48*
%MOMM*%
%LPD*%
G01*
G04 APERTURE LIST*
%TA.AperFunction,ComponentPad*%
%ADD10C,2.200000*%
%TD*%
%TA.AperFunction,ComponentPad*%
%ADD11C,1.524000*%
%TD*%
%TA.AperFunction,ComponentPad*%
%ADD12C,1.815000*%
%TD*%
%TA.AperFunction,ComponentPad*%
%ADD13R,1.815000X1.815000*%
%TD*%
%TA.AperFunction,ComponentPad*%
%ADD14C,1.400000*%
%TD*%
%TA.AperFunction,Conductor*%
%ADD15C,0.200000*%
%TD*%
G04 APERTURE END LIST*
D10*
%TO.P,SW2,2,2*%
%TO.N,GND*%
X166370000Y-109760000D03*
%TO.P,SW2,1,1*%
%TO.N,btn2*%
X172720000Y-107220000D03*
%TD*%
%TO.P,SW1,2,2*%
%TO.N,GND*%
X142600000Y-109800000D03*
%TO.P,SW1,1,1*%
%TO.N,btn1*%
X148950000Y-107260000D03*
%TD*%
D11*
%TO.P,U1,14,VBUS*%
%TO.N,unconnected-(U1-VBUS-Pad14)*%
X177840000Y-83640000D03*
%TO.P,U1,13,GND*%
%TO.N,GND*%
X177840000Y-86180000D03*
%TO.P,U1,12,3V3*%
%TO.N,unconnected-(U1-3V3-Pad12)*%
X177840000Y-88720000D03*
%TO.P,U1,11,GPIO3/MOSI*%
%TO.N,unconnected-(U1-GPIO3{slash}MOSI-Pad11)*%
X177840000Y-91260000D03*
%TO.P,U1,10,GPIO4/MISO*%
%TO.N,unconnected-(U1-GPIO4{slash}MISO-Pad10)*%
X177840000Y-93800000D03*
%TO.P,U1,9,GPIO2/SCK*%
%TO.N,unconnected-(U1-GPIO2{slash}SCK-Pad9)*%
X177840000Y-96340000D03*
%TO.P,U1,8,GPIO1/RX*%
%TO.N,unconnected-(U1-GPIO1{slash}RX-Pad8)*%
X177840000Y-98880000D03*
%TO.P,U1,7,GPIO0/TX*%
%TO.N,unconnected-(U1-GPIO0{slash}TX-Pad7)*%
X162600000Y-98880000D03*
%TO.P,U1,6,GPIO7/SCL*%
%TO.N,led4*%
X162600000Y-96340000D03*
%TO.P,U1,5,GPIO6/SDA*%
%TO.N,led3*%
X162600000Y-93800000D03*
%TO.P,U1,4,GPIO29/ADC3/A3*%
%TO.N,led2*%
X162600000Y-91260000D03*
%TO.P,U1,3,GPIO28/ADC2/A2*%
%TO.N,led1*%
X162600000Y-88720000D03*
%TO.P,U1,2,GPIO27/ADC1/A1*%
%TO.N,btn2*%
X162600000Y-86180000D03*
%TO.P,U1,1,GPIO26/ADC0/A0*%
%TO.N,btn1*%
X162600000Y-83640000D03*
%TD*%
D12*
%TO.P,D1,A*%
%TO.N,Net-(D1-PadA)*%
X158490000Y-83260000D03*
D13*
%TO.P,D1,C*%
%TO.N,GND*%
X155950000Y-83260000D03*
%TD*%
D14*
%TO.P,R4,1*%
%TO.N,Net-(D4-PadA)*%
X140600000Y-89260000D03*
%TO.P,R4,2*%
%TO.N,led4*%
X140600000Y-94340000D03*
%TD*%
%TO.P,R3,1*%
%TO.N,Net-(D3-PadA)*%
X146600000Y-89260000D03*
%TO.P,R3,2*%
%TO.N,led3*%
X146600000Y-94340000D03*
%TD*%
%TO.P,R2,1*%
%TO.N,Net-(D2-PadA)*%
X152600000Y-89260000D03*
%TO.P,R2,2*%
%TO.N,led2*%
X152600000Y-94340000D03*
%TD*%
%TO.P,R1,1*%
%TO.N,Net-(D1-PadA)*%
X158600000Y-89220000D03*
%TO.P,R1,2*%
%TO.N,led1*%
X158600000Y-94300000D03*
%TD*%
D13*
%TO.P,D4,C*%
%TO.N,GND*%
X137950000Y-83260000D03*
D12*
%TO.P,D4,A*%
%TO.N,Net-(D4-PadA)*%
X140490000Y-83260000D03*
%TD*%
D13*
%TO.P,D3,C*%
%TO.N,GND*%
X143950000Y-83260000D03*
D12*
%TO.P,D3,A*%
%TO.N,Net-(D3-PadA)*%
X146490000Y-83260000D03*
%TD*%
D13*
%TO.P,D2,C*%
%TO.N,GND*%
X149950000Y-83260000D03*
D12*
%TO.P,D2,A*%
%TO.N,Net-(D2-PadA)*%
X152490000Y-83260000D03*
%TD*%
D15*
%TO.N,btn1*%
X163663000Y-84703000D02*
X162600000Y-83640000D01*
X163663000Y-99737000D02*
X163663000Y-84703000D01*
X156140000Y-107260000D02*
X163663000Y-99737000D01*
X148950000Y-107260000D02*
X156140000Y-107260000D01*
%TO.N,led3*%
X161600000Y-93800000D02*
X162600000Y-93800000D01*
X147601000Y-95341000D02*
X160059000Y-95341000D01*
X160059000Y-95341000D02*
X161600000Y-93800000D01*
X146600000Y-94340000D02*
X147601000Y-95341000D01*
%TO.N,led2*%
X152600000Y-94340000D02*
X155680000Y-91260000D01*
X155680000Y-91260000D02*
X162600000Y-91260000D01*
%TO.N,GND*%
X156140000Y-83260000D02*
X158100000Y-81300000D01*
X158100000Y-81300000D02*
X170600000Y-81300000D01*
X155950000Y-83260000D02*
X156140000Y-83260000D01*
X150140000Y-83260000D02*
X152100000Y-81300000D01*
X149950000Y-83260000D02*
X150140000Y-83260000D01*
X152100000Y-81300000D02*
X158100000Y-81300000D01*
X145910000Y-81300000D02*
X146100000Y-81300000D01*
X143950000Y-83260000D02*
X145910000Y-81300000D01*
X146100000Y-81300000D02*
X152100000Y-81300000D01*
X175480000Y-86180000D02*
X177840000Y-86180000D01*
X139910000Y-81300000D02*
X146100000Y-81300000D01*
X170600000Y-81300000D02*
X175480000Y-86180000D01*
X137950000Y-83260000D02*
X139910000Y-81300000D01*
X166330000Y-109800000D02*
X166370000Y-109760000D01*
X142600000Y-109800000D02*
X166330000Y-109800000D01*
X166370000Y-97650000D02*
X177840000Y-86180000D01*
X166370000Y-109760000D02*
X166370000Y-97650000D01*
%TD*%
M02*
