M48
; DRILL file {KiCad 9.0.2} date 2025-06-30T19:38:35+0300
; FORMAT={-:-/ absolute / metric / decimal}
; #@! TF.CreationDate,2025-06-30T19:38:35+03:00
; #@! TF.GenerationSoftware,Kicad,Pcbnew,9.0.2
; #@! TF.FileFunction,Plated,1,2,PTH
FMAT,2
METRIC
; #@! TA.AperFunction,Plated,PTH,ComponentDrill
T1C0.700
; #@! TA.AperFunction,Plated,PTH,ComponentDrill
T2C0.889
; #@! TA.AperFunction,Plated,PTH,ComponentDrill
T3C1.210
; #@! TA.AperFunction,Plated,PTH,ComponentDrill
T4C1.500
%
G90
G05
T1
X140.6Y-89.26
X140.6Y-94.34
X146.6Y-89.26
X146.6Y-94.34
X152.6Y-89.26
X152.6Y-94.34
X158.6Y-89.22
X158.6Y-94.3
T2
X162.6Y-83.64
X162.6Y-86.18
X162.6Y-88.72
X162.6Y-91.26
X162.6Y-93.8
X162.6Y-96.34
X162.6Y-98.88
X177.84Y-83.64
X177.84Y-86.18
X177.84Y-88.72
X177.84Y-91.26
X177.84Y-93.8
X177.84Y-96.34
X177.84Y-98.88
T3
X137.95Y-83.26
X140.49Y-83.26
X143.95Y-83.26
X146.49Y-83.26
X149.95Y-83.26
X152.49Y-83.26
X155.95Y-83.26
X158.49Y-83.26
T4
X142.6Y-109.8
X148.95Y-107.26
X166.37Y-109.76
X172.72Y-107.22
M30
